<?xml version="1.0" encoding="UTF-8"?>
<svg xmlns="http://www.w3.org/2000/svg" viewBox="0 0 1024 250.05">
  <defs>
    <style>
      .cls-1 {
        fill: #fdb414;
      }

      .cls-2 {
        fill: #154587;
      }

      .cls-3 {
        fill: #19a598;
      }

      .cls-4 {
        fill: #cc2027;
      }
    </style>
  </defs>
  <g id="Layer_2" data-name="Layer 2">
    <path class="cls-4" d="M0,118.83c27.72,17.68,63.7,37.3,107.71,53.84,37.61,14.14,92.83,26.54,101.28,27.94s-32.59,13.37-51.42,23.73c-17.49,9.62-33.57,17.11-45.99,25.67H0V118.83Z"/>
  </g>
  <g id="Layer_3" data-name="Layer 3">
    <path class="cls-1" d="M111.58,250c15.04-10.15,36.37-23.32,63.21-36.11,85.46-40.72,160.68-47.86,206.39-48.78,101.72-2.03,233.9,25.14,247.24,31.62,0,0-39.62,1.22-95.62,8.75-48.82,6.56-110.26,17.27-166.47,44.52H111.58"/>
  </g>
  <g id="Layer_4" data-name="Layer 4">
    <path class="cls-3" d="M367.38,249.88s57.37-38,206.17-51.58c17.39-1.59,35.87-1.98,55.67-1.56,30.48,0,88.76-2.67,152.38-35.43s113.06-72.66,191.24-52.95c80.92,20.39-257.46,147-260.57,141.52h-343.7s-1.19,0-1.19,0"/>
  </g>
  <g id="Layer_5" data-name="Layer 5">
    <path class="cls-2" d="M1024,0s-10.13,95.95-113.75,164.52c-35.72,21.26-97.46,53.46-167.94,72.13-20.47,5.42-41.78,9.27-62.92,13.35h344.61V0Z"/>
  </g>
</svg>